<?xml version="1.0" encoding="utf-8"?>
<!-- Generator: Adobe Illustrator 23.0.3, SVG Export Plug-In . SVG Version: 6.00 Build 0)  -->
<svg version="1.1" id="Capa_1" xmlns="http://www.w3.org/2000/svg" xmlns:xlink="http://www.w3.org/1999/xlink" x="0px" y="0px"
	 viewBox="0 0 60 84" style="enable-background:new 0 0 60 84;" xml:space="preserve">
<style type="text/css">
	.st0{fill:url(#SVGID_1_);}
	.st1{fill:#FFFFFF;}
	.st2{fill:#FF5A5F;}
	.st3{fill:none;stroke:#FFFFFF;stroke-width:2;stroke-miterlimit:10;}
</style>
<g>
	
		<linearGradient id="SVGID_1_" gradientUnits="userSpaceOnUse" x1="40.1836" y1="3.3743" x2="40.1836" y2="28.2473" gradientTransform="matrix(1 0 0 -1 0 86)">
		<stop  offset="0" style="stop-color:#000000;stop-opacity:0.7"/>
		<stop  offset="1" style="stop-color:#000000;stop-opacity:0"/>
	</linearGradient>
	<path class="st0" d="M40.2,57.8c-10.2,0-18.5,3.7-18.5,8.4c0,2.4,2.8,7.7,2.8,7.7l5.3,8.8l26.8-12.4c0,0,2-1.3,2-3.9
		C58.7,61.5,50.4,57.8,40.2,57.8z"/>
</g>
<polygon class="st1" points="30.2,82.7 16.3,68.7 10.1,25.5 40.4,23.1 54.2,50.3 "/>
<g>
	<g>
		<path class="st2" d="M50.6,21.6c-5.6-5.6-13-8.4-20.4-8.4s-14.7,2.8-20.4,8.4c-1.3,1.3-2.5,2.7-3.5,4.2c-0.1,0.1-0.1,0.2-0.2,0.2
			c-0.2,0.2-0.3,0.5-0.5,0.8c0,0,0,0,0,0.1c-6.8,11.1-5.5,25.8,4.2,35.5l6.4,6.4l9.3-9.3L19.1,53c-6.1-6.1-6.1-16.1,0-22.2
			c3-3,6.9-4.6,11.1-4.6c4.2,0,8.1,1.6,11.1,4.6c5,5,5.9,12.5,2.8,18.4c-0.4,0.8-0.9,1.6-1.5,2.4c-1.1,1.5-2.4,2.9-3.9,4L20.9,73.4
			l9.3,9.3l20.4-20.4C61.8,51,61.8,32.8,50.6,21.6z M39.4,37.9c-1.6-3.2-4.9-5.4-8.8-5.4c-3.8,0-7.2,2.2-8.8,5.4
			c-0.7,1.3-1,2.8-1,4.4c0,5.4,4.4,9.8,9.8,9.8c5.4,0,9.8-4.4,9.8-9.8C40.4,40.7,40,39.2,39.4,37.9z"/>
	</g>
	<g>
		<path class="st3" d="M50.6,21.6c-5.6-5.6-13-8.4-20.4-8.4s-14.7,2.8-20.4,8.4c-1.3,1.3-2.5,2.7-3.5,4.2c-0.1,0.1-0.1,0.2-0.2,0.2
			c-0.2,0.2-0.3,0.5-0.5,0.8c0,0,0,0,0,0.1c-6.8,11.1-5.5,25.8,4.2,35.5l6.4,6.4l9.3-9.3L19.1,53c-6.1-6.1-6.1-16.1,0-22.2
			c3-3,6.9-4.6,11.1-4.6c4.2,0,8.1,1.6,11.1,4.6c5,5,5.9,12.5,2.8,18.4c-0.4,0.8-0.9,1.6-1.5,2.4c-1.1,1.5-2.4,2.9-3.9,4L20.9,73.4
			l9.3,9.3l20.4-20.4C61.8,51,61.8,32.8,50.6,21.6z M39.4,37.9c-1.6-3.2-4.9-5.4-8.8-5.4c-3.8,0-7.2,2.2-8.8,5.4
			c-0.7,1.3-1,2.8-1,4.4c0,5.4,4.4,9.8,9.8,9.8c5.4,0,9.8-4.4,9.8-9.8C40.4,40.7,40,39.2,39.4,37.9z"/>
	</g>
</g>
</svg>
